# xmcd
#
# Track frame offsets:
#	150
#	10995
#	34650
#	53017
#	72657
#	91605
#	108027
#	138995
#	154840
#	173280
#	187247
#	211675
#
# Disc length: 3117 seconds
#
# Revision: 1
# Processed by: cddbd v1.4PL0 Copyright (c) Steve Scherf et al.
# Submitted via: audiograbber 1.81.02
#
DISCID=920c2b0c
DTITLE=Tony Sarno and the Screamin' Blue Demons - It's A Blues Thing
DYEAR=1995
DGENRE=Blues
TTITLE0=I Ain't Superstitious
TTITLE1=Blue Shadows
TTITLE2=Who To Believe
TTITLE3=Lady And My Dog
TTITLE4=Alone In The Dark
TTITLE5=Talk To Me Baby
TTITLE6=Gambler's Blues
TTITLE7=Nellie Fetch The Hosepipe
TTITLE8=Crybaby Blues
TTITLE9=Money On The Side
TTITLE10=Walkin' Blues
TTITLE11=Screamin' Blues Demon (It's A Blues Thing)
EXTD=
EXTT0=
EXTT1=
EXTT2=
EXTT3=
EXTT4=
EXTT5=
EXTT6=
EXTT7=
EXTT8=
EXTT9=
EXTT10=
EXTT11=
PLAYORDER=
